<?xml version="1.0" encoding="utf-8"?>
<!-- Generator: Adobe Illustrator 19.2.0, SVG Export Plug-In . SVG Version: 6.00 Build 0)  -->
<svg version="1.1" id="Layer_1" xmlns="http://www.w3.org/2000/svg" xmlns:xlink="http://www.w3.org/1999/xlink" x="0px" y="0px"
	 viewBox="0 0 114.2 114.2" style="enable-background:new 0 0 114.2 114.2;" xml:space="preserve">
<style type="text/css">
	.st0{fill:url(#SVGID_1_);stroke:#FBFBFB;stroke-width:3;stroke-miterlimit:10;}
	.st1{fill:#F1F2F2;}
	.st2{fill:url(#SVGID_2_);}
</style>
<title>careconnectlogo2</title>
<linearGradient id="SVGID_1_" gradientUnits="userSpaceOnUse" x1="5.9704" y1="90.3496" x2="106.5604" y2="197.6696" gradientTransform="matrix(1 0 0 -1 0 202)">
	<stop  offset="0" style="stop-color:#282561"/>
	<stop  offset="0.13" style="stop-color:#273974"/>
	<stop  offset="0.3" style="stop-color:#274E8B"/>
	<stop  offset="0.47" style="stop-color:#275F9E"/>
	<stop  offset="0.64" style="stop-color:#226BAD"/>
	<stop  offset="0.81" style="stop-color:#2073B7"/>
	<stop  offset="1" style="stop-color:#2075BC"/>
</linearGradient>
<circle class="st0" cx="57.1" cy="57.1" r="55.6"/>
<path class="st1" d="M84.1,32c-13-15.3-35-16.8-49.7-3.3s-16.3,36.5-3.3,51.4c0.3,0,0.6,0.8,0.9,1.1c0.3,0.4,0.3,1,0,1.5
	c-1.5,3.6-3.9,6.8-6.9,9.3c4.4,0.1,8.7-1.5,12.1-4.4c0.6-0.9,1.9-1,2.7-0.4c0,0,0,0,0,0c13.6,8.6,31,6,42.5-5.6
	C95.3,68.2,95.9,46.6,84.1,32z"/>
<linearGradient id="SVGID_2_" gradientUnits="userSpaceOnUse" x1="39.7698" y1="141.985" x2="80.2202" y2="141.985" gradientTransform="matrix(1 0 0 -1 -2.62 198)">
	<stop  offset="0" style="stop-color:#E64C3C"/>
	<stop  offset="1" style="stop-color:#E64C3C"/>
</linearGradient>
<path class="st2" d="M76.9,51.4c-0.7-0.7-1.3-1-2-0.7H63V38.4c0-1.4-1.1-2.6-2.6-2.7c0,0,0,0-0.1,0h-5.6c-1.4,0-2.6,1.1-2.7,2.6
	c0,0,0,0,0,0.1v12.3H39.8c-1.4,0-2.6,1.1-2.7,2.6c0,0,0,0,0,0.1V59c0,1.4,1.1,2.6,2.6,2.7c0,0,0,0,0.1,0h12.3v11.9
	c0,1.4,1.1,2.6,2.6,2.7c0,0,0,0,0.1,0h5.6c1.4,0,2.6-1.1,2.7-2.6c0,0,0,0,0-0.1V62h11.9c1.4,0,2.6-1.1,2.7-2.6c0,0,0,0,0-0.1v-5.6
	C77.6,52.9,77.4,52.1,76.9,51.4z"/>
</svg>
