<?xml version="1.0" encoding="utf-8"?>
<!-- Generator: Adobe Illustrator 19.2.0, SVG Export Plug-In . SVG Version: 6.00 Build 0)  -->
<svg version="1.1" id="Layer_1" xmlns="http://www.w3.org/2000/svg" xmlns:xlink="http://www.w3.org/1999/xlink" x="0px" y="0px"
	 viewBox="0 0 66.2 44.6" style="enable-background:new 0 0 66.2 44.6;" xml:space="preserve">
<style type="text/css">
	.st0{fill:#1C75BC;}
	.st1{font-family:'AvenirNext-Bold';}
	.st2{font-size:12px;}
	.st3{fill:#2B3990;}
	.st4{font-family:'Avenir-Book';}
	.st5{fill:url(#SVGID_1_);}
	.st6{fill:#F1F1F2;}
	.st7{fill:url(#SVGID_2_);}
</style>
<title>careconnect</title>
<text transform="matrix(1 0 0 1 -2.365112e-04 38.8148)" class="st0 st1 st2">ca</text>
<text transform="matrix(1 0 0 1 12.4598 38.8148)" class="st0 st1 st2">r</text>
<text transform="matrix(1 0 0 1 16.6098 38.8148)" class="st0 st1 st2">e</text>
<text transform="matrix(1 0 0 1 23.4998 38.8148)" class="st3 st4 st2">connect</text>
<linearGradient id="SVGID_1_" gradientUnits="userSpaceOnUse" x1="19.7018" y1="43.3416" x2="46.0603" y2="15.2179" gradientTransform="matrix(1 0 0 -1 0 46)">
	<stop  offset="0" style="stop-color:#282561"/>
	<stop  offset="0.1313" style="stop-color:#273974"/>
	<stop  offset="0.2964" style="stop-color:#264D89"/>
	<stop  offset="0.4651" style="stop-color:#255E9D"/>
	<stop  offset="0.6365" style="stop-color:#206BAC"/>
	<stop  offset="0.8125" style="stop-color:#1E72B6"/>
	<stop  offset="1" style="stop-color:#1E75BB"/>
</linearGradient>
<path class="st5" d="M44.4,24.8c0,2.1-1.9,3.9-4.2,3.9H26c-2.3,0-4.2-1.7-4.2-3.9V9.1c0-2.1,1.9-3.9,4.2-3.9h14.1
	c2.3,0,4.2,1.7,4.2,3.9V24.8z"/>
<g>
	<g>
		<path class="st6" d="M40,12c-3.3-3.2-9-3.5-12.8-0.7S23,18.9,26.3,22c0.1,0,0.2,0.2,0.2,0.2c0.1,0.1,0.1,0.2,0,0.3
			c-0.4,0.8-1,1.4-1.8,1.9c1.2,0,2.2-0.3,3.1-0.9c0.2-0.2,0.5-0.2,0.7-0.1c3.5,1.8,8,1.2,10.9-1.2C42.8,19.5,43,15,40,12z"/>
	</g>
</g>
<g>
	<g>
		
			<linearGradient id="SVGID_2_" gradientUnits="userSpaceOnUse" x1="27.9413" y1="16.4308" x2="36.0856" y2="16.4308" gradientTransform="matrix(1 0 0 1 1.0866 0.5232)">
			<stop  offset="0" style="stop-color:#E64C3B"/>
			<stop  offset="1" style="stop-color:#E64C3B"/>
		</linearGradient>
		<path class="st7" d="M37,16c-0.1-0.1-0.3-0.2-0.4-0.1h-2.4v-2.5c0-0.3-0.3-0.5-0.5-0.5h-1.1c-0.3,0-0.5,0.3-0.5,0.5v2.5h-2.5
			c-0.3,0-0.5,0.3-0.5,0.5v1.1c0,0.3,0.3,0.5,0.5,0.5H32v2.4c0,0.3,0.3,0.5,0.5,0.5h1.1c0.3,0,0.5-0.3,0.5-0.5v-2.3h2.4
			c0.3,0,0.5-0.3,0.5-0.5v-1.1C37.2,16.3,37.1,16.2,37,16z"/>
	</g>
</g>
</svg>
