<svg id="Layer_1" data-name="Layer 1" xmlns="http://www.w3.org/2000/svg" xmlns:xlink="http://www.w3.org/1999/xlink" viewBox="0 0 112.23 116.04"><defs><style>.cls-1{fill:url(#linear-gradient);}.cls-2{fill:#f1f2f2;}.cls-3{fill:url(#linear-gradient-2);}</style><linearGradient id="linear-gradient" x1="-6.56" y1="133" x2="124.38" y2="-6.71" gradientTransform="matrix(1, 0, 0, -1, 0, 122)" gradientUnits="userSpaceOnUse"><stop offset="0" stop-color="#282561"/><stop offset="0.13" stop-color="#273974"/><stop offset="0.3" stop-color="#274e8b"/><stop offset="0.47" stop-color="#275f9e"/><stop offset="0.64" stop-color="#226bad"/><stop offset="0.81" stop-color="#2073b7"/><stop offset="1" stop-color="#2075bc"/></linearGradient><linearGradient id="linear-gradient-2" x1="39.77" y1="60.02" x2="80.23" y2="60.02" gradientUnits="userSpaceOnUse"><stop offset="0" stop-color="#e64c3c"/><stop offset="1" stop-color="#e64c3c"/></linearGradient></defs><title>careconnectlogo1</title><path class="cls-1" d="M116.12,98.78c0,10.63-9.42,19.25-21,19.25H24.93c-11.62,0-21-8.62-21-19.25V21.25C3.88,10.62,13.3,2,24.93,2H95.07c11.62,0,21,8.62,21,19.25V98.78Z" transform="translate(-3.88 -2)"/><path class="cls-2" d="M94.09,35.41c-16.52-15.75-44.57-17.29-63.4-3.46S9.94,69.61,26.46,85c0.38,0,.77.77,1.15,1.15s0.38,0.77,0,1.54a26.28,26.28,0,0,1-8.84,9.61,26,26,0,0,0,15.37-4.61,2.86,2.86,0,0,1,3.46-.38c17.29,8.84,39.58,6.15,54.18-5.76C108.31,72.68,109.08,50.39,94.09,35.41Z" transform="translate(-3.88 -2)"/><path class="cls-3" d="M79.57,55.38c-0.66-.66-1.33-1-2-0.66H65.64V42.44A2.62,2.62,0,0,0,63,39.79H57.35a2.62,2.62,0,0,0-2.65,2.65V54.71H42.42a2.62,2.62,0,0,0-2.65,2.65V63a2.62,2.62,0,0,0,2.65,2.65H54.69V77.59a2.62,2.62,0,0,0,2.65,2.65H63a2.62,2.62,0,0,0,2.65-2.65V66H77.58a2.62,2.62,0,0,0,2.65-2.65V57.7A4.79,4.79,0,0,0,79.57,55.38Z" transform="translate(-3.88 -2)"/></svg>